<svg xmlns="http://www.w3.org/2000/svg" version="1.1" xmlns:xlink="http://www.w3.org/1999/xlink" xmlns:svgjs="http://svgjs.dev/svgjs" width="100%" height="100%" viewBox="0 0 1000 600"><rect width="1000" height="600" x="0" y="0" fill="#ffff"/><g><circle r="166.66666666666666" cx="294.9413706461588" cy="317.1636011670803" fill="#f4a896" transform="matrix(0.9744712018700203,0,0,0.9744712018700203,0,-9.066792932282823)"/><path d="M323.28095260765673 259.18987948595225L323.28095260765673 242.1636128257269L371.96763247904494 242.1636128257269L371.96763247904494 259.18987948595225L357.69933959188086 259.18987948595225L357.69933959188086 375.1373483126107L371.96763247904494 375.1373483126107L371.96763247904494 392.16361497283606L323.28095260765673 392.16361497283606L323.28095260765673 375.1373483126107L338.30909541188873 375.1373483126107L338.30909541188873 321.2161467903103L251.54549191854204 321.2161467903103L251.54549191854204 375.1373483126107L266.573634722774 375.1373483126107L266.573634722774 392.16361497283606L217.9150974409069 392.16361497283606L217.9150974409069 375.1373483126107L232.1552477385499 375.1373483126107L232.1552477385499 259.18987948595225L217.9150974409069 259.18987948595225L217.9150974409069 242.1636128257269L266.573634722774 242.1636128257269L266.573634722774 259.18987948595225L251.54549191854204 259.18987948595225L251.54549191854204 304.6120189729005L338.30909541188873 304.6120189729005L338.30909541188873 259.18987948595225L323.28095260765673 259.18987948595225Z " fill="#00000" transform="matrix(0.9744712018700203,0,0,0.9744712018700203,0,-9.066792932282823)"/><path d="M625.2502455451046 256.3420765839333L625.2502455451046 243.36481366330332L662.3587824916993 243.36481366330332L662.3587824916993 256.3420765839333L651.4836216639978 256.3420765839333L651.4836216639978 344.7161645723556L662.3587824916993 344.7161645723556L662.3587824916993 357.6934274929855L625.2502455451046 357.6934274929855L625.2502455451046 344.7161645723556L636.7045569494292 344.7161645723556L636.7045569494292 303.6179236534679L570.5741411076074 303.6179236534679L570.5741411076074 344.7161645723556L582.0284525119321 344.7161645723556L582.0284525119321 357.6934274929855L544.9413655866937 357.6934274929855L544.9413655866937 344.7161645723556L555.7950763930387 344.7161645723556L555.7950763930387 256.3420765839333L544.9413655866937 256.3420765839333L544.9413655866937 243.36481366330332L582.0284525119321 243.36481366330332L582.0284525119321 256.3420765839333L570.5741411076074 256.3420765839333L570.5741411076074 290.96241105318416L636.7045569494292 290.96241105318416L636.7045569494292 256.3420765839333L625.2502455451046 256.3420765839333ZM680.0765001320966 292.5282626122023L680.0765001320966 279.57244971292874L705.5591255035155 279.57244971292874L705.5591255035155 344.7161645723556L717.31373720683 344.7161645723556L717.31373720683 357.6934274929855L680.2266502815914 357.6934274929855L680.2266502815914 344.7161645723556L691.3806613869264 344.7161645723556L691.3806613869264 292.5282626122023L680.0765001320966 292.5282626122023ZM688.7423087600876 251.90192216315577L688.7423087600876 251.90192216315577Q688.7423087600876 249.92852019836576 689.5359595502748 248.1696184471399Q690.3296103404621 246.38926667455758 691.6380616432034 245.05936535045998Q692.967962967301 243.75091404771877 694.7697647612397 242.95726325753148Q696.5930165765348 242.1636124673442 698.630768605394 242.1636124673442L698.630768605394 242.1636124673442Q700.5827205488276 242.1636124673442 702.3630723214098 242.95726325753148Q704.1219740726358 243.75091404771877 705.4518753967334 245.05936535045998Q706.7603266994746 246.38926667455758 707.553977489662 248.1696184471399Q708.3476282798492 249.92852019836576 708.3476282798492 251.90192216315577L708.3476282798492 251.90192216315577Q708.3476282798492 253.91822417065862 707.553977489662 255.74147598595374Q706.7603266994746 257.54327777989243 705.4518753967334 258.9375291680593Q704.1219740726358 260.33178055622614 702.3630723214098 261.12543134641345Q700.5827205488276 261.91908213660076 698.630768605394 261.91908213660076L698.630768605394 261.91908213660076Q696.5930165765348 261.91908213660076 694.7697647612397 261.12543134641345Q692.967962967301 260.33178055622614 691.6380616432034 258.9375291680593Q690.3296103404621 257.54327777989243 689.5359595502748 255.74147598595374Q688.7423087600876 253.91822417065862 688.7423087600876 251.90192216315577ZM787.3695069568753 351.9662717908232L787.3695069568753 350.8294206589333Q783.5299531340773 354.9049247166518 778.4462980726074 357.1571769590752Q773.3626430111375 359.43087922285497 766.8632865401444 359.43087922285497L766.8632865401444 359.43087922285497Q758.9482286596278 359.43087922285497 752.1271218682884 356.6852764892341Q745.306015076949 353.9182237342568 740.2867100795484 348.5986184378663Q735.2674050821477 343.3004631628323 732.4360022631012 335.5570054531671Q729.626049465411 327.8349977648584 729.626049465411 317.8821878554827L729.626049465411 317.8821878554827Q729.626049465411 308.8302788430763 732.3287521563191 301.40857145375736Q735.0529048685836 293.965414043082 740.0293098232714 288.7316088321172Q745.0057147779593 283.49780362115234 752.0198717615065 280.5806007166802Q759.0340287450535 277.6848478335644 767.6140372876188 277.6848478335644L767.6140372876188 277.6848478335644Q773.5127931606324 277.6848478335644 778.2103478376869 278.9932991363056Q782.9293525360978 280.3232004604032 787.3695069568753 283.56215368522163L787.3695069568753 283.56215368522163L787.3695069568753 279.57244971292874L801.3978209239694 279.57244971292874L801.3978209239694 354.604624417662Q801.3978209239694 373.15889289095946 792.6247621891965 382.66125235185046Q783.8302534330671 392.16361181274146 765.2759849597697 392.16361181274146L765.2759849597697 392.16361181274146Q761.2219309234076 392.16361181274146 756.7603264812738 391.5630112147619Q752.3201720604961 390.94096059542596 747.9872677465007 389.63250929268474Q743.6329134111488 388.30260796858715 739.535959332074 386.26485593972785Q735.4175552316426 384.24855393222504 731.9426517719037 381.28845098504L731.9426517719037 381.28845098504L739.4930592893611 369.91993966614103Q741.7667615531409 371.8718916095746 744.6625144362567 373.5235432540185Q747.5582673193725 375.1966449198187 750.8830206296166 376.354946073065Q754.2077739398605 377.53469724766774 757.7470274636687 378.19964790971653Q761.2862809874769 378.88604859312176 764.825534511285 378.88604859312176L764.825534511285 378.88604859312176Q770.6384902988731 378.88604859312176 774.9070445487993 377.68484739716257Q779.1541487773691 376.46219617984707 781.9212015323463 373.4162931472364Q784.6668042659672 370.3703901146257 786.0181556114213 365.1580349250173Q787.3695069568753 359.94567973540893 787.3695069568753 351.9662717908232L787.3695069568753 351.9662717908232ZM768.6865383554394 347.2043670496995L768.6865383554394 347.2043670496995Q772.139991793822 347.2043670496995 775.0142946555814 346.5394163876507Q777.8885975173407 345.8530157042455 780.2051998238333 344.7590646150684Q782.5432521516823 343.66511352589134 784.3236039242646 342.22796209501166Q786.1039556968469 340.790810664132 787.3695069568753 339.2249591051138L787.3695069568753 339.2249591051138L787.3695069568753 296.45361652042595Q783.5299531340773 293.06451314611263 778.5106481366767 291.5630116511637Q773.5127931606324 290.0400601348584 768.2360879069547 290.0400601348584L768.2360879069547 290.0400601348584Q763.2382329309105 290.0400601348584 758.8838785955586 291.90621199286636Q754.5080742388503 293.75091382951786 751.2262209713191 297.29016735332607Q747.9443677037879 300.8294208771342 746.0567658244236 305.95597598131695Q744.1691639450592 311.0825310854997 744.1691639450592 317.7320377059878L744.1691639450592 317.7320377059878Q744.1691639450592 324.960694903099 745.9709657389978 330.47335039169724Q747.794217554293 335.964555858939 751.0331707791114 339.7183095963113Q754.2721240039298 343.45061331232716 758.798078510133 345.31676517033515Q763.3240330163362 347.2043670496995 768.6865383554394 347.2043670496995ZM819.651789098277 318.63293860295715L819.651789098277 318.63293860295715Q819.7375891837028 309.3450793556302 822.6333420668186 301.7303217741036Q825.5290949499343 294.1155641925769 830.7414501395427 288.64580874669156Q835.9538053291511 283.1975033221626 843.118112462193 280.2374003749776Q850.2824195952351 277.298747449149 858.8624281378004 277.298747449149L858.8624281378004 277.298747449149Q867.5496867871477 277.298747449149 874.7354439415461 280.2374003749776Q881.942651117301 283.1975033221626 887.0692062214837 288.58145868262227Q892.1957613256664 293.965414043082 895.0700641874258 301.5801716246087Q897.9229170278288 309.1949292061354 897.9229170278288 318.48278845346226L897.9229170278288 318.48278845346226Q897.9229170278288 327.5990475299378 895.0700641874258 335.2567051541773Q892.1957613256664 342.91436277841683 887.0692062214837 348.42701826701506Q881.942651117301 353.9182237342568 874.7354439415461 356.9855767882239Q867.5496867871477 360.03147982083453 858.8624281378004 360.03147982083453L858.8624281378004 360.03147982083453Q850.0464693603146 360.03147982083453 842.8821622272726 357.00702680958034Q835.7178550942306 354.00402381968246 830.5912999900479 348.5342683737971Q825.4647448858651 343.0645129279118 822.5904420241056 335.4497553463851Q819.7375891837028 327.8349977648584 819.651789098277 318.63293860295715ZM834.5166538982714 318.63293860295715L834.5166538982714 318.63293860295715Q834.5166538982714 325.34679528751445 836.4257057989922 330.773650690687Q838.3562077210694 336.20050609385953 841.7024110526698 340.0186098953011Q845.0700644056267 343.8152636753862 849.4887688050478 345.8959157469583Q853.8860231831125 347.95511779717395 858.8624281378004 347.95511779717395L858.8624281378004 347.95511779717395Q864.0747833274088 347.95511779717395 868.5578377908992 345.9388157896711Q873.0408922543895 343.9010637608119 876.3656455646335 340.0829599593703Q879.6903988748776 336.2863061792852 881.5565507328855 330.83800075475625Q883.4441526122498 325.41114535158374 883.4441526122498 318.63293860295715L883.4441526122498 318.63293860295715Q883.4441526122498 311.5329815339844 881.5565507328855 306.0417760667426Q879.6903988748776 300.52912057814444 876.4085456073465 296.83971690484134Q873.1266923398151 293.1503132315383 868.6007378336119 291.26271135217394Q864.0747833274088 289.3751094728096 858.8624281378004 289.3751094728096L858.8624281378004 289.3751094728096Q853.8860231831125 289.3751094728096 849.4887688050478 291.26271135217394Q845.0700644056267 293.1503132315383 841.7024110526698 296.83971690484134Q838.3562077210694 300.52912057814444 836.4257057989922 306.0417760667426Q834.5166538982714 311.5329815339844 834.5166538982714 318.63293860295715Z " fill="#00000" transform="matrix(0.9744712018700203,0,0,0.9744712018700203,0,-9.066792932282823)"/></g></svg>